#!OML:ASF E:\acrobat2\Project_11_07_03\Capture day 1\Session 1\Acrobat.ASF
:FULLY-SPECIFIED
:DEGREES
549
root 10.8376 6.04323 11.6992 -88.5374 3.32823 179.627
lowerback -4.56365 -3.06711 4.79049
upperback 0.0285927 -4.39172 1.2446
thorax 2.32439 -2.14712 -1.67017
lowerneck 5.28113 -14.7692 -10.4862
upperneck -29.193 -15.6157 29.7919
head -5.77726 -8.53015 12.4746
rclavicle 3.81667e-014 -3.07247e-014
rhumerus 31.2566 -32.7418 -31.3813
rradius 119.965
rwrist -22.113
rhand -19.5097 -43.2423
rfingers 7.12502
rthumb 6.81315 -73.1127
lclavicle 3.81667e-014 -3.07247e-014
lhumerus 16.8987 47.2686 2.45231
lradius 108.154
lwrist 32.8915
lhand -3.35731 -26.6032
lfingers 7.12502
lthumb 22.371 2.1215
rfemur 0.939569 16.544 -8.5161
rtibia -2.74323e-014
rfoot 32.9886 -23.9262
rtoes 27.0781
lfemur -11.0706 -20.7037 3.59469
ltibia 19.1004
lfoot 36.5726 11.7398
ltoes 19.9839
550
root 10.8338 6.04163 11.6994 -88.5562 3.31951 179.65
lowerback -4.56069 -3.07517 4.84018
upperback 0.0482074 -4.40539 1.22394
thorax 2.33686 -2.15277 -1.72003
lowerneck 5.26401 -14.743 -10.4552
upperneck -29.1907 -15.5778 29.7219
head -5.79442 -8.50504 12.4472
rclavicle 2.70347e-014 -1.64867e-014
rhumerus 31.308 -32.7605 -31.4769
rradius 119.905
rwrist -22.1446
rhand -19.4847 -43.2138
rfingers 7.12502
rthumb 6.83725 -73.0834
lclavicle 2.70347e-014 -1.64867e-014
lhumerus 16.9229 47.3087 2.36023
lradius 108.092
lwrist 32.9212
lhand -3.34602 -26.5912
lfingers 7.12502
lthumb 22.3819 2.1322
rfemur 0.929487 16.5738 -8.48076
rtibia -6.75868e-015
rfoot 33.3407 -23.4395
rtoes 25.5999
lfemur -10.9397 -20.7288 3.58888
ltibia 18.9168
lfoot 36.616 11.7777
ltoes 20.3445
551
root 10.8294 6.03914 11.6981 -88.5654 3.33034 179.678
lowerback -4.57979 -3.08239 4.87785
upperback 0.0686016 -4.41844 1.19597
thorax 2.36282 -2.1578 -1.77215
lowerneck 5.28392 -14.6992 -10.4564
upperneck -29.2128 -15.5289 29.5826
head -5.83364 -8.46622 12.4087
rclavicle 0 4.17448e-015
rhumerus 31.352 -32.774 -31.5657
rradius 119.86
rwrist -22.1733
rhand -19.4936 -43.1739
rfingers 7.12502
rthumb 6.82868 -73.0438
lclavicle 0 4.17448e-015
lhumerus 16.938 47.3514 2.25424
lradius 108.036
lwrist 32.9503
lhand -3.3658 -26.5629
lfingers 7.12502
lthumb 22.3629 2.16284
rfemur 0.908147 16.6028 -8.46805
rtibia 1.35174e-014
rfoot 33.7245 -22.7848
rtoes 23.6621
lfemur -10.7867 -20.7856 3.56145
ltibia 18.6797
lfoot 36.6127 11.8684
ltoes 20.7497
552
root 10.8246 6.03614 11.6956 -88.5717 3.36293 179.706
lowerback -4.60635 -3.09087 4.89783
upperback 0.0882083 -4.43246 1.16208
thorax 2.3929 -2.16335 -1.82109
lowerneck 5.33299 -14.6418 -10.4978
upperneck -29.2452 -15.4721 29.4179
head -5.88183 -8.41879 12.3726
rclavicle -3.18055e-015 1.00635e-014
rhumerus 31.3955 -32.7805 -31.655
rradius 119.827
rwrist -22.1898
rhand -19.5158 -43.1262
rfingers 7.12502
rthumb 6.80726 -72.9967
lclavicle -3.18055e-015 1.00635e-014
lhumerus 16.9366 47.3915 2.13732
lradius 107.989
lwrist 32.9793
lhand -3.39594 -26.5361
lfingers 7.12502
lthumb 22.3339 2.19303
rfemur 0.883194 16.6304 -8.48046
rtibia 3.57812e-015
rfoot 34.0997 -22.0538
rtoes 21.5183
lfemur -10.6168 -20.8674 3.50838
ltibia 18.4048
lfoot 36.5791 11.9874
ltoes 21.0615
553
root 10.8197 6.03301 11.6914 -88.5766 3.41435 179.729
lowerback -4.63104 -3.10135 4.89998
upperback 0.104349 -4.44781 1.12573
thorax 2.41936 -2.16988 -1.86256
lowerneck 5.40193 -14.5792 -10.5707
upperneck -29.2842 -15.4151 29.2477
head -5.93281 -8.36898 12.3423
rclavicle 1.11319e-014 8.57259e-016
rhumerus 31.4424 -32.7851 -31.7431
rradius 119.804
rwrist -22.2001
rhand -19.5298 -43.0772
rfingers 7.12502
rthumb 6.7937 -72.9482
lclavicle 1.11319e-014 8.57259e-016
lhumerus 16.9195 47.4268 2.02101
lradius 107.954
lwrist 33.0085
lhand -3.44379 -26.4799
lfingers 7.12502
lthumb 22.288 2.25474
rfemur 0.854933 16.6517 -8.51725
rtibia 2.06736e-014
rfoot 34.4546 -21.3154
rtoes 19.3929
lfemur -10.4487 -20.961 3.43312
ltibia 18.1193
lfoot 36.5471 12.0774
ltoes 21.0917
554
root 10.8148 6.03022 11.686 -88.5805 3.47439 179.744
lowerback -4.64859 -3.11426 4.89157
upperback 0.117219 -4.46527 1.09131
thorax 2.43921 -2.17781 -1.89577
lowerneck 5.45833 -14.5244 -10.657
upperneck -29.3059 -15.3698 29.1103
head -5.96775 -8.32681 12.3207
rclavicle 2.38542e-014 -5.20567e-015
rhumerus 31.497 -32.7919 -31.827
rradius 119.789
rwrist -22.2115
rhand -19.5264 -43.0342
rfingers 7.12502
rthumb 6.79705 -72.9051
lclavicle 2.38542e-014 -5.20567e-015
lhumerus 16.8893 47.4609 1.91131
lradius 107.928
lwrist 33.0416
lhand -3.54467 -26.3501
lfingers 7.12502
lthumb 22.1911 2.39614
rfemur 0.827486 16.6656 -8.56787
rtibia 0
rfoot 34.7411 -20.682
rtoes 17.5813
lfemur -10.2996 -21.0536 3.3483
ltibia 17.8528
lfoot 36.5539 12.0959
ltoes 20.7974
555
root 10.8101 6.0281 11.6797 -88.5828 3.53444 179.749
lowerback -4.65777 -3.13023 4.87866
upperback 0.126491 -4.48603 1.06187
thorax 2.45116 -2.18774 -1.92091
lowerneck 5.48883 -14.4851 -10.7385
upperneck -29.3068 -15.3387 29.0343
head -5.98096 -8.29748 12.3128
rclavicle 0 7.16867e-015
rhumerus 31.558 -32.8033 -31.9044
rradius 119.777
rwrist -22.2336
rhand -19.5042 -42.9997
rfingers 7.12502
rthumb 6.81848 -72.8699
lclavicle 0 7.16867e-015
lhumerus 16.8537 47.4939 1.81456
lradius 107.91
lwrist 33.0778
lhand -3.70628 -26.135
lfingers 7.12502
lthumb 22.036 2.62955
rfemur 0.806464 16.6695 -8.62002
rtibia -5.56597e-015
rfoot 34.9516 -20.1776
rtoes 16.1511
lfemur -10.1835 -21.132 3.26554
ltibia 17.6288
lfoot 36.6229 12.0321
ltoes 20.2492
